<?xml version="1.0" encoding="UTF-8" standalone="no" ?>
<!DOCTYPE svg PUBLIC "-//W3C//DTD SVG 1.1//EN" "http://www.w3.org/Graphics/SVG/1.1/DTD/svg11.dtd">
<svg xmlns="http://www.w3.org/2000/svg" xmlns:xlink="http://www.w3.org/1999/xlink" version="1.1" width="741.6719243659911" height="403.3342437762356" viewBox="-120.83596218299556 145.7564412237643 741.6719243659911 403.3342437762356" xml:space="preserve">
<desc>Created with Fabric.js 4.6.0</desc>
<defs>
</defs>
<g transform="matrix(1 0 0 1 228.96 502.18)" id="66E6pC8IZt4k6fGN23_wM"  >
<path style="stroke: none; stroke-width: 1; stroke-dasharray: none; stroke-linecap: butt; stroke-dashoffset: 0; stroke-linejoin: miter; stroke-miterlimit: 4; fill: rgb(231,223,223); fill-rule: nonzero; opacity: 1;" vector-effect="non-scaling-stroke"  transform=" translate(-578.96, -702.18)" d="M 651.61162 679.71942 C 646.49004 672.54767 639.55693 667.30023 630.8406200000001 665.33631 C 623.24004 663.62372 615.42462 663.9155900000001 607.69853 663.9751600000001 L 510.00615 664.72846 C 501.63945 664.7929700000001 493.61748 672.0415700000001 494.00615 680.72846 C 494.39189 689.34204 501.03789 696.7976100000001 510.00615 696.72846 Q 552.93193 696.39746 595.85723 696.06646 C 602.60381 696.01446 609.3543 695.89275 616.10137 695.91491 C 617.6165 695.91985 619.12529 695.99975 620.63896 696.0169099999999 C 621.00566 696.0210599999999 621.27031 696.0178199999999 621.45732 696.00991 C 621.5042 696.02419 621.5437499999999 696.03725 621.60478 696.05398 C 622.39434 696.27077 623.20439 696.42019 623.99878 696.62612 C 623.72046 696.63442 624.51391 697.12942 624.9123500000001 697.2971200000001 C 624.9670400000001 697.40512 625.08374 697.5965000000001 625.2785600000001 697.89227 C 625.5505600000001 698.40227 626.35571 699.9509300000001 626.3889100000001 699.9021600000001 C 627.5986098851984 702.9609700232597 628.5965698027417 706.0993338114673 629.3757300000001 709.2950500000001 C 631.2351100000001 716.3422300000001 631.6438 717.8153100000001 631.9113800000001 724.427 C 632.2497500000002 732.779 639.0285600000001 740.82483 647.9113800000001 740.427 C 656.2902800000002 740.0517 664.2741700000001 733.38464 663.9113800000001 724.427 C 663.3001 709.33283 660.65068 692.37738 651.61162 679.71942 Z" stroke-linecap="round" />
</g>
<g transform="matrix(1 0 0 1 110.98 389.68)" id="iEJ3lygvjPGzatrBV21Ih"  >
<path style="stroke: none; stroke-width: 1; stroke-dasharray: none; stroke-linecap: butt; stroke-dashoffset: 0; stroke-linejoin: miter; stroke-miterlimit: 4; fill: rgb(226,224,224); fill-rule: nonzero; opacity: 1;" vector-effect="non-scaling-stroke"  transform=" translate(-460.05, -586.18)" d="M 515.74883 715.82494 C 513.91383 704.7053099999999 512.11406 693.57857 510.24345999999997 682.46542 C 508.34545999999995 671.19125 504.46903999999995 660.8673 495.69559999999996 653.46792 C 493.35137 651.49104 490.92069999999995 649.6452400000001 488.47977999999995 647.80516 C 487.62138999999996 647.15836 486.76444999999995 646.5106 485.91630999999995 645.8495 C 485.86553 645.80998 485.8333099999999 645.7852 485.78930999999994 645.75089 C 485.69604999999996 645.67069 485.58423999999997 645.57538 485.43384999999995 645.44817 C 481.77710999999994 642.35337 478.24384999999995 639.12094 474.87817999999993 635.68499 Q 470.3950299999999 631.1077 466.30346999999995 626.13999 Q 465.2810099999999 624.89928 464.28491999999994 623.63633 C 464.17065999999994 623.49152 463.55542999999994 622.69641 463.15014999999994 622.17758 C 462.77314999999993 621.65831 462.08423999999997 620.72058 461.9685099999999 620.55685 Q 460.80470999999994 618.9111600000001 459.6823799999999 617.23485 C 454.58630912849776 609.5996587685078 450.1735470874721 601.5298992422522 446.49537999999984 593.11936 Q 445.9482499999999 591.8681700000001 445.4270199999999 590.60229 C 445.3337599999999 590.3447500000001 445.2131499999999 590.01395 445.0530199999999 589.57353 C 444.31180999999987 587.5352 443.5720199999999 585.49935 442.8943299999999 583.43688 Q 440.7344099999999 576.8657999999999 439.1804599999999 570.10068 Q 438.4121399999999 566.76019 437.7971599999999 563.3857800000001 Q 437.4800099999999 561.6504900000001 437.2038999999999 559.9080100000001 C 437.1736199999999 559.7151600000001 436.99389999999994 558.46184 436.8879799999999 557.7536500000001 C 436.8098499999999 557.0420300000001 436.6643399999999 555.7821000000001 436.6448099999999 555.58747 Q 436.4690399999999 553.8310100000001 436.3328099999999 552.07113 Q 436.0259299999999 548.1110100000001 435.91780999999986 544.1376700000001 Q 435.7332499999999 537.0763000000001 436.17073999999985 530.0159600000001 C 436.33673999999985 527.3713 436.57308999999987 524.73351 436.86409999999984 522.10067 C 436.88167999999985 521.93889 436.89534999999984 521.81021 436.90804999999983 521.69425 C 436.92562999999984 521.57669 436.9461299999998 521.44313 436.97054999999983 521.2769 C 437.1858799999998 519.8218999999999 437.41243999999983 518.3688999999999 437.66585999999984 516.9204599999999 C 438.625554750342 511.42087971223486 439.8736970355865 505.975552486581 441.40511999999984 500.60702 Q 442.49276999999984 496.7984399999999 443.76790999999986 493.0516399999999 Q 444.33626999999984 491.3883899999999 444.94075999999984 489.73786999999993 C 444.91438999999986 489.80886999999996 446.1228899999998 486.72212999999994 446.13899999999984 486.61841999999996 C 450.93392999999986 475.28935999999993 458.77669999999983 464.96142 458.78743999999983 452.09198999999995 C 458.79476999999986 443.37866999999994 451.42317999999983 435.03192999999993 442.78743999999983 435.43459999999993 C 433.83819200900325 435.7714576987422 426.76387581114693 443.1364354419303 426.78743999999983 452.09198999999995 C 426.78743999999983 452.28763999999995 426.78643999999986 452.45456999999993 426.7859799999998 452.61659999999995 C 426.7054099999998 452.88786999999996 426.63802999999984 453.11420999999996 426.5774799999998 453.31436999999994 C 425.6424199999998 455.3463699999999 424.4969099999998 457.27721999999994 423.47054999999983 459.25874999999996 C 420.65999999999985 464.68219999999997 418.26106999999985 470.28356999999994 415.98226999999986 475.96716999999995 C 412.25166431881985 485.222719153929 409.3960951444312 494.80732143274355 407.4529699999999 504.59542000000005 C 403.22943399056084 526.0416880851058 402.9016149543736 548.0731753178491 406.4851999999999 569.6356099999999 C 412.68880999999993 607.44841 433.14681999999993 643.64461 461.5881999999999 667.97489 C 464.0564599999999 670.08623 466.5847799999999 672.1265999999999 469.1370299999999 674.12578 C 470.1931799999999 674.95292 471.2581199999999 675.76487 472.32843999999994 676.57155 C 472.8342999999999 676.95294 474.92999999999995 678.60555 474.00811999999996 677.80486 C 475.99055 679.49669 476.82501999999994 680.34816 477.3343 681.5943 C 477.40803 681.8819 477.50861 682.27192 477.64484 682.80518 C 478.00372999999996 684.21056 478.34454999999997 685.6126899999999 478.62775 687.0377699999999 C 481.10334 699.4891999999999 482.82403999999997 712.1493599999999 484.89191 724.6813599999999 C 486.31329999999997 733.2919999999999 496.91391 738.89623 504.57403999999997 736.3155599999999 C 513.49 733.31151 517.27178 725.05119 515.74883 715.82494 Z" stroke-linecap="round" />
</g>
<g transform="matrix(1 0 0 1 230.56 347.19)" id="pYDBw3r8jHVxRSR2Ew4iY"  >
<path style="stroke: none; stroke-width: 1; stroke-dasharray: none; stroke-linecap: butt; stroke-dashoffset: 0; stroke-linejoin: miter; stroke-miterlimit: 4; fill: rgb(0,0,0); fill-rule: nonzero; opacity: 1;" vector-effect="non-scaling-stroke"  transform=" translate(-580.57, -547.19)" d="M 653.23 748.12012 C 639.2389522540739 748.1564972798764 627.8585338281318 736.8610474771239 627.79006 722.87012 L 627.79006 704.61865 C 608.6811700000001 706.75781 543.24685 706.26221 524.4902500000001 703.24854 L 524.4902500000001 722.1401400000001 C 524.3854677865445 736.1159385104927 513.0262563022878 747.3903046446629 499.0500650000001 747.3903046446629 C 485.0738736977124 747.3903046446629 473.71466221345565 736.1159385104927 473.6098800000001 722.1401400000001 L 473.6098800000001 685.04834 C 421.87984800842145 656.3104763675966 389.7436745744055 601.8365329457647 389.6098800000001 542.66016 C 389.6098800000001 492.83008 412.19288000000006 446.3457 451.56862000000007 415.12646 C 477.170320090641 394.7591568594274 508.27618162991115 382.51032134355285 540.89113 379.95313 C 545.3181300000001 379.60596 549.7719900000001 379.43018 554.1299000000001 379.43018 C 569.4822000000001 379.43018 638.7485600000001 381.80176 656.1277100000001 386.80176 L 695.75562 347.48 C 696.9472870927789 346.2815579682521 698.7455747078047 345.923188888681 700.30562 346.57326 C 701.8785660669714 347.1990541179818 702.9052502570114 348.72714701873684 702.8901 350.41994 L 702.8901 356.67194 L 710.60641 349.02985 C 711.7957938115518 347.8300429333984 713.5937262831164 347.470878004378 715.15279 348.12164 C 716.7270627665945 348.74709671973386 717.7549822620476 350.2758856222723 717.74019 351.96979 L 717.74019 421.83453 C 758.1241883495838 458.24139268207045 777.6613135260725 512.4094936571655 769.8137664666007 566.2123093660084 C 761.9662194071288 620.0151250748513 727.7705747098273 666.3458957045937 678.66988 689.70074 L 678.66988 722.87018 C 678.6013732320566 736.861060528681 667.2210010450108 748.156464237369 653.23 748.12012 Z M 629.79 702.35059 L 629.79 722.87012 C 629.895001826207 735.7410280637565 640.3586036370119 746.1196152244061 653.2299399999999 746.1196152244061 C 666.101276362988 746.1196152244061 676.5648781737929 735.7410280637565 676.6698799999999 722.87012 L 676.6698799999999 688.4375 L 677.24088 688.1665 C 704.3685195778398 675.2937663604725 727.39775903342 655.1545267143545 743.7716399999999 629.98486 C 786.8852717224145 563.617324615769 775.1211090420138 475.71914162232315 716.07242 423.02486000000005 L 715.74014 422.72652 L 715.74014 351.96973 C 715.7547958903746 351.0892100363893 715.2193102994671 350.2927959924101 714.39835 349.97412 C 713.5829707939607 349.62543416600596 712.6371473492519 349.8133596548522 712.017 350.44727 L 700.8900000000001 361.46777000000003 L 700.8900000000001 350.41992 C 700.9046500948407 349.5394011536458 700.3691607562471 348.74299146211405 699.5482000000001 348.42431999999997 C 698.7309061617577 348.07620247611555 697.7837348180949 348.26544216819644 697.16295 348.90088 L 656.68663 389.06444999999997 L 656.11143 388.88428 C 639.9554300000001 383.82764 569.59874 381.43018 554.1297400000001 381.43018 C 549.82383 381.43018 545.4224700000001 381.604 541.0482000000001 381.94727 C 508.82956900811706 384.4731242523113 478.10169245101093 396.5732153975056 452.81138000000004 416.6933600000001 C 413.91685000000007 447.53125 391.6097200000001 493.44435999999996 391.6097200000001 542.66016 C 391.7451451577084 601.3200931410062 423.7129859590541 655.2831009081586 475.094 683.585 L 475.60987 683.8706500000001 L 475.60987 722.1401800000001 C 475.7171885957317 735.0095687977449 486.1802187419697 745.3857109083884 499.050055 745.3857109083884 C 511.91989125803025 745.3857109083884 522.3829214042682 735.0095687977449 522.49024 722.1401800000001 L 522.49024 700.85449 L 523.6750599999999 701.0771500000001 C 540.53077 704.24854 611.5068499999999 704.74854 628.6599199999999 702.49854 Z" stroke-linecap="round" />
</g>
<g transform="matrix(1 0 0 1 10.62 253.19)" id="EzwhOEP_2mBkdKEb7o2Gd"  >
<path style="stroke: none; stroke-width: 1; stroke-dasharray: none; stroke-linecap: butt; stroke-dashoffset: 0; stroke-linejoin: miter; stroke-miterlimit: 4; fill: rgb(0,0,0); fill-rule: nonzero; opacity: 1;" vector-effect="non-scaling-stroke"  transform=" translate(-360.62, -453.19)" d="M 396.51011 492.6705 C 382.55773644816395 490.60916403686593 369.21382017803484 485.5638062641669 357.38794 477.87834 C 351.529154901583 474.0735525753586 346.105405336652 469.63757696769835 341.214 464.65 C 336.38614 459.72566 331.7675 454.12878 329.37619 447.57079999999996 C 327.0754389636895 441.5034093788068 327.19402410922663 434.78393053528015 329.70743 428.8015 C 332.18656565341763 422.85568262033036 336.922252975007 418.1355414673181 342.87619 415.67596999999995 C 348.86580000000004 413.2873599999999 356.10238 413.03184999999996 361.9316 415.64775999999995 C 364.7093550925847 416.86528060595106 367.11305501751684 418.80010523189236 368.89593 421.25359999999995 C 369.724687020722 422.3847268638711 370.3383288444747 423.65863956140987 370.70623 425.0117599999999 C 371.04763463380795 426.2379123274743 371.0786868408756 427.52973019058106 370.79659 428.77086999999995 C 370.10506293342485 431.27771001892927 368.36485177192253 433.3639016444577 366.02270999999996 434.49386999999996 C 363.4748838744243 435.8009797982159 360.7142433792912 436.64293095649776 357.87060999999994 436.98013 C 355.0104799999999 437.37012999999996 350.90192999999994 437.72497999999996 348.6026099999999 435.42913 C 348.1292994291659 434.974912221471 347.75700897720344 434.42605971498045 347.50999999999993 433.81834 C 347.33716076747794 433.35299983550004 347.2780585288134 432.8530856857748 347.33761999999996 432.36026999999996 C 347.30407999999994 432.57750999999996 347.47633999999994 431.88791 347.46653 431.91540999999995 C 347.43017 432.01734999999996 347.27268999999995 432.26580999999993 347.49652999999995 431.88406 C 347.5664634668991 431.75824300633576 347.6443237811971 431.6369985548315 347.72963999999996 431.52106 C 347.65363999999994 431.61933 347.48672999999997 431.78333 347.78479 431.50194 C 348.0310865460399 431.2323898989302 348.3477190040799 431.03692190190264 348.69906 430.93753 C 348.83747 430.89721 348.97789 430.86510999999996 349.11668999999995 430.8272 C 349.46945999999997 430.73083 348.76507999999995 430.83246 349.12598999999994 430.82089 C 349.26525999999996 430.81643 349.40619999999996 430.81989000000004 349.5449899999999 430.81363000000005 C 349.8989899999999 430.79772 349.19571999999994 430.71708000000007 349.53498999999994 430.80237000000005 C 349.66671999999994 430.83549000000005 349.79720999999995 430.86784000000006 349.92698999999993 430.9087200000001 C 350.20906999999994 430.99759000000006 349.7272499999999 430.7017900000001 349.9183999999999 430.92318000000006 C 350.1423999999999 431.1826300000001 349.6831899999999 430.6708300000001 349.9377999999999 430.92199000000005 C 350.0644961900645 431.0464494292585 350.1839173538963 431.17810419233757 350.2954699999999 431.31630000000007 C 351.21430137716146 432.22341923854924 352.69163862283835 432.22341923854924 353.6104699999999 431.31630000000007 C 354.4965200913282 430.38892098740797 354.4965200913282 428.92867901259217 353.6104699999999 428.00130000000007 C 351.2990699999999 425.1359500000001 346.7333999999999 425.84395000000006 344.3951899999999 428.2656600000001 C 341.4131899999999 431.3541400000001 342.5940799999999 436.2488400000001 345.4947299999999 438.9436600000001 C 348.7784299999999 441.9944200000001 353.4291299999999 442.20650000000006 357.6530699999999 441.6948000000001 C 361.22278898723584 441.3528687170386 364.70155136283773 440.3697942735098 367.9222499999999 438.7928000000001 C 371.1223826061619 437.22037168803274 373.6252465923435 434.5164768397948 374.9462499999999 431.2046300000001 C 376.15260228312854 427.62935979003714 375.7679654805549 423.7084281282134 373.8898399999999 420.4357400000001 C 370.16053999999986 413.4245600000001 362.43831999999986 409.8299900000001 354.8054699999999 409.20737000000014 C 346.8678569673429 408.5856058929494 339.0113340187589 411.16478399795244 332.9866799999999 416.37015000000014 C 327.2376803601733 421.5457875606808 323.69758340792066 428.7328693930501 323.09845999999993 436.4451500000001 C 322.4321999999999 444.4411500000001 325.53453999999994 452.2064300000001 330.05767999999995 458.6594700000001 C 334.79288636146606 465.21597127346763 340.44350148357165 471.05983849421125 346.83711999999997 476.01277000000005 C 359.3365176451398 485.99188570361235 373.9983011462536 492.9065782840518 389.64912 496.2034800000001 Q 392.44149 496.7803300000001 395.26385999999997 497.1910600000001 C 396.5064961982986 497.4922198232542 397.76912992975394 496.7753208583264 398.14727999999997 495.5539100000001 C 398.4816881585443 494.30681182413633 397.7524007446222 493.02236240689837 396.51012 492.6704800000001 Z" stroke-linecap="round" />
</g>
<g transform="matrix(1 0 0 1 239.1 198.51)" id="Fkg-Lzz9zBOcs-cMhEl56"  >
<path style="stroke: none; stroke-width: 1; stroke-dasharray: none; stroke-linecap: butt; stroke-dashoffset: 0; stroke-linejoin: miter; stroke-miterlimit: 4; fill: rgb(120,120,120); fill-rule: nonzero; opacity: 1;" vector-effect="non-scaling-stroke"  transform=" translate(-589.1, -398.51)" d="M 619.8954 390.79425 Q 589.2323 390.36147 558.7624 392.35058999999995 C 551.8190999999999 392.80396999999994 545.8116799999999 395.25800999999996 545.8116799999999 399.38264999999996 C 545.8116799999999 402.83119999999997 551.77132 406.87122999999997 558.7624 406.41464999999994 Q 589.21683 404.42594999999994 619.8954 404.85831999999994 C 636.56931 405.09367 636.55948 391.02941 619.8954 390.79425 Z" stroke-linecap="round" />
</g>
<g transform="matrix(1 0 0 1 239.68 196.91)" id="ucu_8_R69yHBmFlWbe-xq"  >
<path style="stroke: none; stroke-width: 1; stroke-dasharray: none; stroke-linecap: butt; stroke-dashoffset: 0; stroke-linejoin: miter; stroke-miterlimit: 4; fill: rgb(63,61,86); fill-rule: nonzero; opacity: 1;" vector-effect="non-scaling-stroke"  transform=" translate(-589.68, -396.91)" d="M 589.68169 404.16175 C 587.47246 404.16175 535.57598 404.07923 535.57598 396.91075 C 535.57598 389.74275 587.47246 389.66026 589.68169 389.66026 C 591.89092 389.66026 643.7874 389.74278 643.7874 396.91075 C 643.7874 404.07923 591.89092 404.16175 589.68169 404.16175 Z M 537.60527 396.91075 C 539.02544 399.08409 558.10161 402.16175 589.68169 402.16175 C 621.26177 402.16175 640.33769 399.08411 641.7581 396.91075 C 640.33794 394.7379 621.2617700000001 391.66026 589.68169 391.66026 C 558.1016099999999 391.66026 539.02544 394.73792 537.60527 396.91077 Z" stroke-linecap="round" />
</g>
<g transform="matrix(1 0 0 1 431.01 333.46)" id="BWkGwrEN2LN3DsQoRQU9T"  >
<path style="stroke: none; stroke-width: 1; stroke-dasharray: none; stroke-linecap: butt; stroke-dashoffset: 0; stroke-linejoin: miter; stroke-miterlimit: 4; fill: rgb(0,0,0); fill-rule: nonzero; opacity: 1;" vector-effect="non-scaling-stroke"  transform=" translate(-778.21, -533.46)" d="M 754.33555 592.61209 C 765.82386 592.29309 780.12167 591.89433 791.13655 583.84802 C 797.7758852122009 578.7992293872003 801.8459561897544 571.0754889270398 802.2570700000001 562.7447 C 802.4819000000001 556.3901099999999 800.1860700000001 550.84321 795.7921900000001 547.13062 C 790.0391300000001 542.26919 781.6381900000001 541.12893 772.5848100000001 543.78954 L 781.96481 475.24154 L 775.0791300000001 474.29811 L 764.052 554.885 L 769.80209 552.24644 C 776.46846 549.18878 785.6194 547.63279 791.30587 552.43818 C 794.1362526586491 554.9846811116382 795.6174345546506 558.70528464036 795.31163 562.50031 C 794.9705536968219 568.6983894427401 791.9501680392 574.4415387078058 787.0366300000001 578.23491 C 778.46473 584.49617 767.0680500000001 585.30385 754.1421200000001 585.66527 Z" stroke-linecap="round" />
</g>
<g transform="matrix(1 0 0 1 366.58 284.63)" id="s_wGQkoRvNgMaCr3TR1w8"  >
<path style="stroke: none; stroke-width: 1; stroke-dasharray: none; stroke-linecap: butt; stroke-dashoffset: 0; stroke-linejoin: miter; stroke-miterlimit: 4; fill: rgb(0,0,0); fill-rule: nonzero; opacity: 1;" vector-effect="non-scaling-stroke"  transform=" translate(-18.72, -3.48)" d="M 0 6.95017 L 0 0 L 37.43223 0 L 37.43223 6.95017 z" stroke-linecap="round" />
</g>
<g transform="matrix(1 0 0 1 250 547.4)" id="epJGBsW9sJv2rcU3WsUXN"  >
<path style="stroke: none; stroke-width: 1; stroke-dasharray: none; stroke-linecap: butt; stroke-dashoffset: 0; stroke-linejoin: miter; stroke-miterlimit: 4; fill: rgb(63,61,86); fill-rule: nonzero; opacity: 1;" vector-effect="non-scaling-stroke"  transform=" translate(-600, -747.4)" d="M 969.147 748.5876 L 230.853 748.5876 C 230.1967499812349 748.5856981715289 229.66576063400885 748.0531677745319 229.66576063400885 747.396915 C 229.66576063400885 746.7406622254681 230.1967499812349 746.2081318284711 230.853 746.20623 L 969.147 746.20623 C 969.8045971673523 746.20623 970.337685 746.7393178326478 970.337685 747.3969149999999 C 970.3376850000001 748.0545121673522 969.8045971673523 748.5876 969.147 748.5876 Z" stroke-linecap="round" />
</g>
</svg>