<svg xmlns="http://www.w3.org/2000/svg" xmlns:xlink="http://www.w3.org/1999/xlink" width="320" zoomAndPan="magnify" viewBox="0 0 240 74.999997" height="100" preserveAspectRatio="xMidYMid meet" version="1.0"><defs><clipPath id="id1"><path d="M 97 22.5 L 146.332031 22.5 L 146.332031 52.5 L 97 52.5 Z M 97 22.5 " clip-rule="nonzero"/></clipPath><clipPath id="id2"><path d="M 87.082031 22.5 L 146.332031 22.5 L 146.332031 37 L 87.082031 37 Z M 87.082031 22.5 " clip-rule="nonzero"/></clipPath><clipPath id="id3"><path d="M 95 18 L 132 18 L 132 42 L 95 42 Z M 95 18 " clip-rule="nonzero"/></clipPath><clipPath id="id4"><path d="M 89.585938 23.675781 L 125.695312 8.941406 L 133.0625 26.992188 L 96.953125 41.730469 Z M 89.585938 23.675781 " clip-rule="nonzero"/></clipPath><clipPath id="id5"><path d="M 125.53125 9.007812 L 89.421875 23.742188 L 100.757812 51.519531 L 136.867188 36.78125 Z M 125.53125 9.007812 " clip-rule="nonzero"/></clipPath><clipPath id="id6"><path d="M 125.53125 9.007812 L 89.421875 23.742188 L 100.757812 51.519531 L 136.867188 36.78125 Z M 125.53125 9.007812 " clip-rule="nonzero"/></clipPath><clipPath id="id7"><path d="M 94 17 L 132 17 L 132 42 L 94 42 Z M 94 17 " clip-rule="nonzero"/></clipPath><clipPath id="id8"><path d="M 89.585938 23.675781 L 125.695312 8.941406 L 133.0625 26.992188 L 96.953125 41.730469 Z M 89.585938 23.675781 " clip-rule="nonzero"/></clipPath><clipPath id="id9"><path d="M 125.53125 9.007812 L 89.421875 23.742188 L 100.757812 51.519531 L 136.867188 36.78125 Z M 125.53125 9.007812 " clip-rule="nonzero"/></clipPath><clipPath id="id10"><path d="M 125.53125 9.007812 L 89.421875 23.742188 L 100.757812 51.519531 L 136.867188 36.78125 Z M 125.53125 9.007812 " clip-rule="nonzero"/></clipPath><clipPath id="id11"><path d="M 97 24 L 132 24 L 132 42 L 97 42 Z M 97 24 " clip-rule="nonzero"/></clipPath><clipPath id="id12"><path d="M 89.585938 23.675781 L 125.695312 8.941406 L 133.0625 26.992188 L 96.953125 41.730469 Z M 89.585938 23.675781 " clip-rule="nonzero"/></clipPath><clipPath id="id13"><path d="M 125.53125 9.007812 L 89.421875 23.742188 L 100.757812 51.519531 L 136.867188 36.78125 Z M 125.53125 9.007812 " clip-rule="nonzero"/></clipPath><clipPath id="id14"><path d="M 125.53125 9.007812 L 89.421875 23.742188 L 100.757812 51.519531 L 136.867188 36.78125 Z M 125.53125 9.007812 " clip-rule="nonzero"/></clipPath><clipPath id="id15"><path d="M 95 18 L 129 18 L 129 33 L 95 33 Z M 95 18 " clip-rule="nonzero"/></clipPath><clipPath id="id16"><path d="M 89.585938 23.675781 L 125.695312 8.941406 L 133.0625 26.992188 L 96.953125 41.730469 Z M 89.585938 23.675781 " clip-rule="nonzero"/></clipPath><clipPath id="id17"><path d="M 125.53125 9.007812 L 89.421875 23.742188 L 100.757812 51.519531 L 136.867188 36.78125 Z M 125.53125 9.007812 " clip-rule="nonzero"/></clipPath><clipPath id="id18"><path d="M 125.53125 9.007812 L 89.421875 23.742188 L 100.757812 51.519531 L 136.867188 36.78125 Z M 125.53125 9.007812 " clip-rule="nonzero"/></clipPath><clipPath id="id19"><path d="M 94 17 L 130 17 L 130 34 L 94 34 Z M 94 17 " clip-rule="nonzero"/></clipPath><clipPath id="id20"><path d="M 89.585938 23.675781 L 125.695312 8.941406 L 133.0625 26.992188 L 96.953125 41.730469 Z M 89.585938 23.675781 " clip-rule="nonzero"/></clipPath><clipPath id="id21"><path d="M 125.53125 9.007812 L 89.421875 23.742188 L 100.757812 51.519531 L 136.867188 36.78125 Z M 125.53125 9.007812 " clip-rule="nonzero"/></clipPath><clipPath id="id22"><path d="M 125.53125 9.007812 L 89.421875 23.742188 L 100.757812 51.519531 L 136.867188 36.78125 Z M 125.53125 9.007812 " clip-rule="nonzero"/></clipPath></defs><g clip-path="url(#id1)"><path fill="rgb(0%, 0%, 0%)" d="M 146.285156 22.578125 C 146.332031 22.644531 145.316406 23.503906 143.414062 25.015625 C 141.511719 26.53125 138.722656 28.695312 135.222656 31.378906 C 131.71875 34.058594 127.511719 37.25 122.777344 40.816406 C 118.046875 44.382812 112.792969 48.320312 107.210938 52.492188 C 105.121094 50.347656 102.980469 48.144531 100.804688 45.902344 L 97.144531 42.132812 C 103.992188 39.316406 110.484375 36.652344 116.371094 34.253906 C 122.253906 31.859375 127.53125 29.730469 131.953125 27.972656 C 136.375 26.214844 139.941406 24.824219 142.414062 23.898438 C 144.882812 22.96875 146.253906 22.503906 146.285156 22.578125 C 146.316406 22.65625 145.003906 23.269531 142.59375 24.304688 C 140.183594 25.339844 136.675781 26.792969 132.3125 28.570312 C 127.949219 30.34375 122.734375 32.433594 116.90625 34.746094 C 111.078125 37.0625 104.636719 39.597656 97.820312 42.273438 C 98.957031 43.386719 100.101562 44.507812 101.261719 45.644531 C 103.304688 47.648438 105.3125 49.617188 107.273438 51.542969 C 112.742188 47.382812 117.890625 43.476562 122.550781 39.960938 C 127.210938 36.445312 131.382812 33.320312 134.878906 30.722656 C 138.375 28.125 141.203125 26.058594 143.167969 24.65625 C 145.132812 23.253906 146.234375 22.515625 146.28125 22.578125 Z M 146.285156 22.578125 " fill-opacity="1" fill-rule="evenodd"/></g><g clip-path="url(#id2)"><path fill="rgb(0%, 0%, 0%)" d="M 146.101562 22.578125 C 146.125 22.660156 144.714844 23.109375 142.121094 23.855469 C 139.527344 24.605469 135.75 25.652344 131.039062 26.929688 C 126.328125 28.203125 120.679688 29.710938 114.355469 31.378906 C 108.03125 33.042969 101.027344 34.875 93.609375 36.796875 C 92.035156 34.65625 90.429688 32.472656 88.804688 30.253906 L 87.082031 27.910156 C 103.285156 26.359375 117.890625 24.984375 128.511719 24.023438 C 139.136719 23.066406 145.769531 22.519531 146.101562 22.574219 L 146.101562 22.578125 L 146.105469 22.585938 C 145.785156 22.699219 139.179688 23.382812 128.65625 24.386719 C 118.136719 25.386719 103.699219 26.707031 87.640625 28.152344 L 89.304688 30.167969 C 90.875 32.074219 92.425781 33.953125 93.945312 35.800781 C 101.269531 33.859375 108.175781 32.039062 114.425781 30.410156 C 120.675781 28.78125 126.269531 27.339844 130.953125 26.152344 C 135.636719 24.964844 139.414062 24.035156 142.023438 23.417969 C 144.636719 22.800781 146.082031 22.5 146.101562 22.578125 Z M 146.101562 22.578125 " fill-opacity="1" fill-rule="evenodd"/></g><path fill="rgb(0%, 0%, 0%)" d="M 94.050781 36.027344 C 94.132812 36.046875 94.125 36.40625 94.023438 37.019531 C 93.921875 37.636719 93.726562 38.515625 93.453125 39.589844 C 93.179688 40.664062 92.824219 41.929688 92.40625 43.332031 C 91.992188 44.734375 91.519531 46.269531 91.015625 47.878906 L 90.417969 49.792969 C 91.339844 48.683594 92.214844 47.648438 93.011719 46.722656 C 93.8125 45.800781 94.542969 44.988281 95.167969 44.324219 C 95.796875 43.664062 96.320312 43.148438 96.707031 42.816406 C 97.089844 42.484375 97.335938 42.332031 97.394531 42.386719 C 97.449219 42.441406 97.3125 42.695312 97.003906 43.109375 C 96.691406 43.519531 96.203125 44.089844 95.566406 44.78125 C 94.933594 45.46875 94.148438 46.273438 93.25 47.164062 C 92.355469 48.054688 91.347656 49.03125 90.269531 50.058594 C 90.414062 49.414062 90.5625 48.746094 90.714844 48.066406 C 91.089844 46.382812 91.453125 44.777344 91.800781 43.320312 C 92.148438 41.859375 92.476562 40.554688 92.78125 39.464844 C 93.082031 38.375 93.355469 37.503906 93.574219 36.910156 C 93.796875 36.316406 93.964844 36.003906 94.050781 36.027344 Z M 94.050781 36.027344 " fill-opacity="1" fill-rule="evenodd"/><path fill="rgb(0%, 0%, 0%)" d="M 90.324219 49.984375 C 90.25 49.867188 92.582031 48.765625 95.535156 47.527344 C 98.488281 46.289062 100.949219 45.378906 101.023438 45.5 C 101.101562 45.617188 98.765625 46.71875 95.8125 47.957031 C 92.859375 49.195312 90.398438 50.105469 90.324219 49.984375 Z M 90.324219 49.984375 " fill-opacity="1" fill-rule="evenodd"/><g clip-path="url(#id3)"><g clip-path="url(#id4)"><g clip-path="url(#id5)"><g clip-path="url(#id6)"><path fill="rgb(97.648621%, 65.489197%, 16.859436%)" d="M 97.394531 42.296875 L 131.011719 38.753906 L 128.902344 18.238281 L 95.28125 21.78125 L 97.394531 42.296875 " fill-opacity="1" fill-rule="nonzero"/></g></g></g></g><g clip-path="url(#id7)"><g clip-path="url(#id8)"><g clip-path="url(#id9)"><g clip-path="url(#id10)"><path fill="rgb(11.759949%, 16.468811%, 30.589294%)" d="M 97.394531 42.296875 L 97.359375 41.96875 L 130.648438 38.460938 L 128.605469 18.601562 L 95.644531 22.074219 L 97.722656 42.261719 L 97.394531 42.296875 L 97.359375 41.96875 L 97.394531 42.296875 L 97.0625 42.332031 L 94.953125 21.8125 C 94.933594 21.632812 95.066406 21.472656 95.25 21.453125 L 128.867188 17.910156 C 129.046875 17.890625 129.210938 18.023438 129.230469 18.203125 L 131.339844 38.71875 C 131.347656 38.808594 131.320312 38.894531 131.265625 38.960938 C 131.210938 39.03125 131.132812 39.074219 131.042969 39.082031 L 97.425781 42.625 C 97.246094 42.640625 97.082031 42.511719 97.0625 42.332031 L 97.394531 42.296875 " fill-opacity="1" fill-rule="nonzero"/></g></g></g></g><g clip-path="url(#id11)"><g clip-path="url(#id12)"><g clip-path="url(#id13)"><g clip-path="url(#id14)"><path fill="rgb(97.648621%, 65.489197%, 16.859436%)" d="M 112.570312 24.65625 L 97.394531 42.296875 L 131.011719 38.753906 Z M 112.570312 24.65625 " fill-opacity="1" fill-rule="nonzero"/><path fill="rgb(11.759949%, 16.468811%, 30.589294%)" d="M 112.570312 24.65625 L 112.820312 24.871094 L 98.183594 41.878906 L 130.152344 38.515625 L 112.367188 24.917969 L 112.570312 24.65625 L 112.820312 24.871094 L 112.570312 24.65625 L 112.769531 24.394531 L 131.210938 38.492188 C 131.320312 38.574219 131.367188 38.714844 131.328125 38.84375 C 131.292969 38.976562 131.179688 39.070312 131.042969 39.082031 L 97.425781 42.625 C 97.292969 42.636719 97.164062 42.570312 97.101562 42.449219 C 97.035156 42.328125 97.054688 42.183594 97.140625 42.082031 L 112.320312 24.445312 C 112.433594 24.308594 112.632812 24.289062 112.769531 24.394531 L 112.570312 24.65625 " fill-opacity="1" fill-rule="nonzero"/></g></g></g></g><g clip-path="url(#id15)"><g clip-path="url(#id16)"><g clip-path="url(#id17)"><g clip-path="url(#id18)"><path fill="rgb(97.648621%, 65.489197%, 16.859436%)" d="M 113.425781 32.992188 L 128.902344 18.238281 L 95.28125 21.78125 Z M 113.425781 32.992188 " fill-opacity="1" fill-rule="nonzero"/></g></g></g></g><g clip-path="url(#id19)"><g clip-path="url(#id20)"><g clip-path="url(#id21)"><g clip-path="url(#id22)"><path fill="rgb(11.759949%, 16.468811%, 30.589294%)" d="M 113.425781 32.992188 L 113.199219 32.753906 L 127.972656 18.667969 L 96.277344 22.007812 L 113.601562 32.710938 L 113.425781 32.992188 L 113.199219 32.753906 L 113.425781 32.992188 L 113.253906 33.273438 L 95.109375 22.058594 C 94.988281 21.984375 94.929688 21.84375 94.960938 21.707031 C 94.992188 21.570312 95.109375 21.46875 95.25 21.453125 L 128.867188 17.910156 C 129.007812 17.894531 129.140625 17.972656 129.199219 18.101562 C 129.261719 18.226562 129.230469 18.378906 129.128906 18.476562 L 113.65625 33.230469 C 113.546875 33.335938 113.378906 33.351562 113.253906 33.273438 L 113.425781 32.992188 " fill-opacity="1" fill-rule="nonzero"/></g></g></g></g></svg>