<?xml version="1.0" encoding="UTF-8" standalone="no"?>
<svg
   xmlns:dc="http://purl.org/dc/elements/1.1/"
   xmlns:cc="http://creativecommons.org/ns#"
   xmlns:rdf="http://www.w3.org/1999/02/22-rdf-syntax-ns#"
   xmlns:svg="http://www.w3.org/2000/svg"
   xmlns="http://www.w3.org/2000/svg"
   xmlns:sodipodi="http://sodipodi.sourceforge.net/DTD/sodipodi-0.dtd"
   xmlns:inkscape="http://www.inkscape.org/namespaces/inkscape"
   version="1.1"
   width="445.866135861009"
   height="642.8080718070271"
   viewBox="205.4269320694955 -74.09403590351354 445.866135861009 642.8080718070271"
   xml:space="preserve"
   id="svg12"
   sodipodi:docname="celular-b.svg"
   inkscape:version="1.0.2 (e86c870879, 2021-01-15)"><metadata
   id="metadata16"><rdf:RDF><cc:Work
       rdf:about=""><dc:format>image/svg+xml</dc:format><dc:type
         rdf:resource="http://purl.org/dc/dcmitype/StillImage" /></cc:Work></rdf:RDF></metadata><sodipodi:namedview
   pagecolor="#ffffff"
   bordercolor="#666666"
   borderopacity="1"
   objecttolerance="10"
   gridtolerance="10"
   guidetolerance="10"
   inkscape:pageopacity="0"
   inkscape:pageshadow="2"
   inkscape:window-width="1366"
   inkscape:window-height="714"
   id="namedview14"
   showgrid="false"
   inkscape:zoom="0.74642639"
   inkscape:cx="185.28958"
   inkscape:cy="297.21593"
   inkscape:window-x="0"
   inkscape:window-y="24"
   inkscape:window-maximized="1"
   inkscape:current-layer="g135" />
<desc
   id="desc2">Created with Fabric.js 4.6.0</desc>
<defs
   id="defs4">
<clipPath
   id="id1"><path
     d="M 112.5 151.5 L 262.5 151.5 L 262.5 223.5 L 112.5 223.5 Z M 112.5 151.5 "
     clip-rule="nonzero"
     id="path113" /></clipPath></defs>
<g
   transform="matrix(-1 0 0 1 428.36 247.31)"
   id="gb-7cR6tTZ_0KzTpwcDdL">
<path
   style="stroke: none; stroke-width: 1; stroke-dasharray: none; stroke-linecap: butt; stroke-dashoffset: 0; stroke-linejoin: miter; stroke-miterlimit: 4; fill: rgb(71,72,72); fill-rule: nonzero; opacity: 1;"
   vector-effect="non-scaling-stroke"
   transform=" translate(-810.47, -445.67)"
   d="M 1001.142 124.77 L 760.527 124.77 C 736.6112170059412 124.7688287302217 715.8870695511004 141.33984042256935 710.6270000000001 164.67000000000002 L 589.051 703.938 C 586.3666363517661 715.8444833439088 589.0809034046259 728.3286410959548 596.4665960692577 738.0457238720942 C 603.8522887338894 747.7628066482334 615.154446193836 753.7195404145508 627.345 754.3199999999999 L 874.7 766.507 C 902.0987601447857 767.8566566417172 926.2474146103872 748.6729621107233 931.13 721.679 L 1000.1 340.412 L 1005.231 341.878 L 1018.431 269.613 L 1013.1500000000001 268.293 L 1032.401 161.86700000000002 C 1034.071227040277 152.63749715955146 1031.5406788191065 143.14382360118748 1025.498170769433 135.97015804461515 C 1019.4556627197595 128.79649248804282 1010.5300921133917 124.68946177435305 1001.1510000000001 124.76700000000002 Z"
   stroke-linecap="round"
   id="path6" />
</g>
<g
   transform="matrix(-1 0 0 1 428.07 240.75)"
   id="_f0raEbwGjkIJx0gmM3fA">
<path
   style="stroke: none; stroke-width: 1; stroke-dasharray: none; stroke-linecap: butt; stroke-dashoffset: 0; stroke-linejoin: miter; stroke-miterlimit: 4; fill: rgb(0,0,0); fill-rule: nonzero; opacity: 1;"
   vector-effect="non-scaling-stroke"
   transform=" translate(-810.76, -439.11)"
   d="M 792.2 136.395 L 764.116 136.395 C 747.4973642174923 136.39517158132563 733.1229018991298 147.97140856478097 729.5799999999999 164.208 L 612.8799999999999 699.076 C 611.519681404727 705.3077268178929 612.9438385831363 711.8228546723448 616.780259119828 716.9186140150865 C 620.6166796565198 722.0143733578284 626.4840879413068 725.1843315039685 632.849 725.6 L 879.4 741.76 C 893.8004646809769 742.7039043267997 906.6144261603316 732.6857475621156 909.173 718.483 L 1008.753 165.64499999999998 C 1010.0575923154436 158.40143882568825 1008.0835382826241 150.95225349791735 1003.3629468698131 145.30538212442156 C 998.6423554570022 139.65851075092573 991.6611045893616 136.39517079084865 984.301 136.39499999999998 L 957.658 136.39499999999998 C 952.3560423431916 136.3948471772126 947.7136175060974 139.9524132207935 946.335 145.07199999999997 L 946.335 145.07199999999997 C 945.1178346535589 149.5933433189779 941.0173107339959 152.73475469375506 936.335 152.73299999999998 L 809.847 152.73299999999998 C 800.6000318792802 152.73272842838833 792.9115463567948 145.61455103470294 792.2 136.395 Z"
   stroke-linecap="round"
   id="path9" />
</g>
<g
   inkscape:groupmode="layer"
   id="layer1"
   inkscape:label="Layer 1"><g
     id="g135"
     transform="matrix(1.167372,-0.07477176,0.19582456,0.97613856,200.41515,36.079361)"
     inkscape:transform-center-x="-7.4651608"
     inkscape:transform-center-y="-44.591823"><g
       clip-path="url(#id1)"
       id="g120"
       transform="matrix(0.85404846,0.03253475,0.00361508,0.73834248,0.34614722,48.462633)"><path
         fill="#ffffff"
         d="m 252.39062,172.78906 h -2.79687 v -11.26172 c 0,-5.5039 -4.47656,-9.97656 -9.97656,-9.97656 H 122.47656 c -5.5039,0 -9.97656,4.47266 -9.97656,9.97656 v 51.95703 c 0,5.50391 4.47266,9.97657 9.97656,9.97657 h 117.14063 c 5.5,0 9.97656,-4.47266 9.97656,-9.97657 v -11.26171 h 2.79687 c 5.57422,0 10.10938,-4.53516 10.10938,-10.10938 v -9.21484 c 0,-5.57422 -4.53516,-10.10938 -10.10938,-10.10938 z m -11.1289,40.69531 c 0,0.90625 -0.73828,1.64454 -1.64453,1.64454 H 122.47656 c -0.90625,0 -1.64453,-0.73829 -1.64453,-1.64454 v -51.95703 c 0,-0.90625 0.73828,-1.64453 1.64453,-1.64453 h 117.14063 c 0.90625,0 1.64453,0.73828 1.64453,1.64453 z m 12.90625,-21.37109 c 0,0.98047 -0.80078,1.77734 -1.77735,1.77734 h -2.79687 v -12.76953 h 2.79687 c 0.97657,0 1.77735,0.79688 1.77735,1.77735 z m 0,0"
         fill-opacity="1"
         fill-rule="nonzero"
         id="path118" /></g><path
       fill="#ffffff"
       d="m 108.74872,174.33612 13.56188,0.49405 -0.31198,31.32078 -13.56189,-0.49406 z m 0,0"
       fill-opacity="1"
       fill-rule="nonzero"
       id="path122"
       style="fill:#d80010;fill-opacity:1;stroke-width:0.737504" /></g></g></svg>
