<?xml version="1.0" encoding="UTF-8" standalone="no" ?>
<!DOCTYPE svg PUBLIC "-//W3C//DTD SVG 1.1//EN" "http://www.w3.org/Graphics/SVG/1.1/DTD/svg11.dtd">
<svg xmlns="http://www.w3.org/2000/svg" xmlns:xlink="http://www.w3.org/1999/xlink" version="1.1" width="445.866135861009" height="642.8080718070271" viewBox="205.4269320694955 -74.09403590351354 445.866135861009 642.8080718070271" xml:space="preserve">
<desc>Created with Fabric.js 4.6.0</desc>
<defs>
</defs>
<g transform="matrix(1 0 0 1 428.36 247.31)" id="gb-7cR6tTZ_0KzTpwcDdL"  >
<path style="stroke: none; stroke-width: 1; stroke-dasharray: none; stroke-linecap: butt; stroke-dashoffset: 0; stroke-linejoin: miter; stroke-miterlimit: 4; fill: rgb(71,72,72); fill-rule: nonzero; opacity: 1;" vector-effect="non-scaling-stroke"  transform=" translate(-810.47, -445.67)" d="M 1001.142 124.77 L 760.527 124.77 C 736.6112170059412 124.7688287302217 715.8870695511004 141.33984042256935 710.6270000000001 164.67000000000002 L 589.051 703.938 C 586.3666363517661 715.8444833439088 589.0809034046259 728.3286410959548 596.4665960692577 738.0457238720942 C 603.8522887338894 747.7628066482334 615.154446193836 753.7195404145508 627.345 754.3199999999999 L 874.7 766.507 C 902.0987601447857 767.8566566417172 926.2474146103872 748.6729621107233 931.13 721.679 L 1000.1 340.412 L 1005.231 341.878 L 1018.431 269.613 L 1013.1500000000001 268.293 L 1032.401 161.86700000000002 C 1034.071227040277 152.63749715955146 1031.5406788191065 143.14382360118748 1025.498170769433 135.97015804461515 C 1019.4556627197595 128.79649248804282 1010.5300921133917 124.68946177435305 1001.1510000000001 124.76700000000002 Z" stroke-linecap="round" />
</g>
<g transform="matrix(1 0 0 1 428.65 240.75)" id="_f0raEbwGjkIJx0gmM3fA"  >
<path style="stroke: none; stroke-width: 1; stroke-dasharray: none; stroke-linecap: butt; stroke-dashoffset: 0; stroke-linejoin: miter; stroke-miterlimit: 4; fill: rgb(255,255,255); fill-rule: nonzero; opacity: 1;" vector-effect="non-scaling-stroke"  transform=" translate(-810.76, -439.11)" d="M 792.2 136.395 L 764.116 136.395 C 747.4973642174923 136.39517158132563 733.1229018991298 147.97140856478097 729.5799999999999 164.208 L 612.8799999999999 699.076 C 611.519681404727 705.3077268178929 612.9438385831363 711.8228546723448 616.780259119828 716.9186140150865 C 620.6166796565198 722.0143733578284 626.4840879413068 725.1843315039685 632.849 725.6 L 879.4 741.76 C 893.8004646809769 742.7039043267997 906.6144261603316 732.6857475621156 909.173 718.483 L 1008.753 165.64499999999998 C 1010.0575923154436 158.40143882568825 1008.0835382826241 150.95225349791735 1003.3629468698131 145.30538212442156 C 998.6423554570022 139.65851075092573 991.6611045893616 136.39517079084865 984.301 136.39499999999998 L 957.658 136.39499999999998 C 952.3560423431916 136.3948471772126 947.7136175060974 139.9524132207935 946.335 145.07199999999997 L 946.335 145.07199999999997 C 945.1178346535589 149.5933433189779 941.0173107339959 152.73475469375506 936.335 152.73299999999998 L 809.847 152.73299999999998 C 800.6000318792802 152.73272842838833 792.9115463567948 145.61455103470294 792.2 136.395 Z" stroke-linecap="round" />
</g>
<g transform="matrix(1 0 0 1 444.83 158.03)" id="yfqT_ucpLC55Fe9ATTCro"  >
<path style="stroke: none; stroke-width: 1; stroke-dasharray: none; stroke-linecap: butt; stroke-dashoffset: 0; stroke-linejoin: miter; stroke-miterlimit: 4; fill: rgb(230,230,230); fill-rule: nonzero; opacity: 1;" vector-effect="non-scaling-stroke"  transform=" translate(-826.95, -356.39)" d="M 928.494 510.313 C 929.4848501243371 510.3471134818749 930.3511369329633 509.6501695759172 930.53 508.675 L 985.053 207.75800000000004 C 985.1581292390001 207.1792370431364 985.0058817280454 206.58339066932814 984.636 206.12600000000003 C 984.2693021425106 205.6720091481268 983.7195356192404 205.40482261781753 983.136 205.39700000000002 L 735.077 202.467 L 735.054 202.467 C 734.1265200026302 202.47485513899662 733.3277195782673 203.123024626194 733.129 204.02900000000002 L 668.853 495.179 C 668.725918610946 495.75396420030256 668.8559182663199 496.3557603577637 669.209 496.827 C 669.5588553760527 497.29466862995935 670.0987036223678 497.58236779720806 670.6819999999999 497.612 Z" stroke-linecap="round" />
</g>
<g transform="matrix(1 0 0 1 395.52 342.05)" id="tCSAmVOtEDA_53yS0ILcQ"  >
<path style="stroke: none; stroke-width: 1; stroke-dasharray: none; stroke-linecap: butt; stroke-dashoffset: 0; stroke-linejoin: miter; stroke-miterlimit: 4; fill: rgb(230,230,230); fill-rule: nonzero; opacity: 1;" vector-effect="non-scaling-stroke"  transform=" translate(-777.64, -540.18)" d="M 713.229 529.535 C 712.7645001748647 529.5354156585303 712.3614413165461 529.855625830658 712.2560000000001 530.308 L 709.9330000000001 540.264 C 709.8664269690415 540.5486631312219 709.9277544496725 540.8482031365794 710.1008444957365 541.0837979214998 C 710.2739345418004 541.3193927064202 710.5414515211902 541.4674465494243 710.8330000000001 541.489 L 842.0630000000001 550.816 C 842.566366680299 550.8479993732125 843.0160395558049 550.5033782805883 843.1160000000001 550.009 L 845.3500000000001 538.49 C 845.4046608668468 538.2072292002279 845.3347512853576 537.9146205383371 845.1581718047631 537.6870973030375 C 844.9815923241686 537.4595740677379 844.7154896002017 537.3192297807329 844.4280000000001 537.302 L 713.29 529.537 Z" stroke-linecap="round" />
</g>
<g transform="matrix(1 0 0 1 408.21 377.04)" id="TQ-ePZuXSlyhhPchEHo4n"  >
<path style="stroke: none; stroke-width: 1; stroke-dasharray: none; stroke-linecap: butt; stroke-dashoffset: 0; stroke-linejoin: miter; stroke-miterlimit: 4; fill: rgb(230,230,230); fill-rule: nonzero; opacity: 1;" vector-effect="non-scaling-stroke"  transform=" translate(-790.32, -575.18)" d="M 872.666 587.808 C 873.1547965453972 587.8471955641455 873.5999005279109 587.5261786100584 873.7170000000001 587.05 L 876.5610000000001 575.507 C 876.6316477437786 575.22062519002 876.5722638007627 574.917668567232 876.3987305881968 574.6791568072942 C 876.225197375631 574.4406450473565 875.9552182666683 574.2909104531474 875.6610000000002 574.27 L 708.072 562.549 C 707.603085609829 562.5117140680012 707.1727928042344 562.8098664201771 707.043 563.262 L 704.088 573.237 C 704.0026969104155 573.5257817823158 704.05206370053 573.8376281251186 704.2223916826804 574.0859422676614 C 704.3927196648308 574.334256410204 704.6658731442456 574.4925990708151 704.966 574.5169999999999 Z" stroke-linecap="round" />
</g>
<g transform="matrix(1 0 0 1 399.21 414.04)" id="L8aI8kxBCPD3fPYb-JG6c"  >
<path style="stroke: none; stroke-width: 1; stroke-dasharray: none; stroke-linecap: butt; stroke-dashoffset: 0; stroke-linejoin: miter; stroke-miterlimit: 4; fill: rgb(230,230,230); fill-rule: nonzero; opacity: 1;" vector-effect="non-scaling-stroke"  transform=" translate(-781.32, -612.18)" d="M 863.666 624.808 C 864.1547965453972 624.8471955641455 864.5999005279109 624.5261786100584 864.7170000000001 624.05 L 867.5610000000001 612.507 C 867.6316477437786 612.22062519002 867.5722638007627 611.917668567232 867.3987305881968 611.6791568072942 C 867.225197375631 611.4406450473565 866.9552182666683 611.2909104531474 866.6610000000002 611.27 L 699.072 599.549 C 698.603085609829 599.5117140680012 698.1727928042344 599.8098664201771 698.043 600.262 L 695.088 610.237 C 695.0026969104155 610.5257817823158 695.05206370053 610.8376281251186 695.2223916826804 611.0859422676614 C 695.3927196648308 611.334256410204 695.6658731442456 611.4925990708151 695.966 611.5169999999999 Z" stroke-linecap="round" />
</g>
<g transform="matrix(1 0 0 1 356.45 472.58)" id="GTanc--eyEJhJqkdoXUeZ"  >
<path style="stroke: none; stroke-width: 1; stroke-dasharray: none; stroke-linecap: butt; stroke-dashoffset: 0; stroke-linejoin: miter; stroke-miterlimit: 4; fill: rgb(105,167,206); fill-rule: nonzero; opacity: 1;" vector-effect="non-scaling-stroke"  transform=" translate(-738.57, -670.93)" d="M 786.481 688.283 C 786.9746059930766 688.3342056928 787.4297318982741 688.0116822599814 787.545 687.529 L 793.558 663.478 C 793.6294511104954 663.1934298789397 793.572323805287 662.8918382672335 793.4017502609562 662.6531123135426 C 793.2311767166254 662.4143863598515 792.9643688093696 662.2626149202534 792.672 662.2379999999999 L 689.7560000000001 653.582 C 689.2598107861467 653.5478606671953 688.8115947048306 653.8772572024268 688.6960000000001 654.361 L 683.5670000000001 677.444 C 683.5046022798042 677.7242306931076 683.5656560364129 678.0177626803488 683.7346187298308 678.2498711142288 C 683.9035814232489 678.4819795481087 684.1641532220889 678.6302729275259 684.4500000000002 678.6569999999999 Z" stroke-linecap="round" />
</g>
<g transform="matrix(1 0 0 1 299.72 410.08)" id="FEGBvJsPypUiQOuu5VIdU"  >
<path style="stroke: rgb(0,0,0); stroke-width: 1; stroke-dasharray: none; stroke-linecap: round; stroke-dashoffset: 0; stroke-linejoin: round; stroke-miterlimit: 10; fill: none; fill-rule: nonzero; opacity: 1;" vector-effect="non-scaling-stroke"  transform=" translate(-299.72, -410.08)" d="M 237.08711632695642 517.6593154159129 Q 237.08811632695642 517.658315415913 238.35331657597072 517.0255043491363 Q 239.61851682498502 516.3926932823596 240.88371707399932 515.1270711488061 Q 242.14891732301362 513.8614490152526 244.67931782104233 511.3302047481456 Q 247.20971831907104 508.79896048103865 249.10751869259252 506.2677162139317 Q 251.005319066114 503.73647194682474 251.63791919062118 503.103660880048 Q 252.27051931512835 502.47084981327123 252.90311943963547 501.8380387464946 Q 253.5357195641426 501.20522767971795 254.16831968864977 500.57241661294114 Q 254.80091981315695 499.93960554616433 255.43351993766402 498.6739834126109 Q 256.0661200621711 497.40836127905743 258.5965205601998 494.8771170119504 Q 261.1269210582285 492.3458727448434 262.3921213072428 491.08025061128996 Q 263.6573215562571 489.8146284777365 264.92252180527146 487.28338421062955 Q 266.1877220542858 484.7521399435226 266.82032217879294 483.48651780996914 Q 267.45292230330006 482.2208956764157 268.08552242780723 480.95527354286224 Q 268.7181225523144 479.6896514093088 269.9833228013287 478.4240292757553 Q 271.248523050343 477.1584071422018 271.8811231748502 475.2599739418716 Q 272.51372329935737 473.3615407415414 273.77892354837167 471.4631075412112 Q 275.04412379738596 469.56467434088097 275.67672392189314 468.29905220732746 Q 276.3093240464003 467.03343007377396 276.94192417090744 465.76780794022045 Q 277.57452429541456 464.50218580666694 278.8397245444289 462.60375260633674 Q 280.1049247934433 460.70531940600654 280.1049247934433 459.4396972724531 Q 280.1049247934433 458.17407513889964 280.7375249179504 457.5412640721229 Q 281.3701250424575 456.90845300534613 281.3701250424575 455.6428308717927 Q 281.3701250424575 454.37720873823923 282.6353252914719 453.1115866046857 Q 283.9005255404862 451.8459644711322 285.79832591400776 447.41628700369506 Q 287.6961262875293 442.9866095362579 288.3287264120364 442.3537984694812 Q 288.96132653654354 441.7209874027045 289.5939266610507 438.5569320688208 Q 290.2265267855579 435.3928767349371 290.2265267855579 434.76006566816034 Q 290.2265267855579 434.1272546013836 290.2265267855579 433.49444353460683 Q 290.2265267855579 432.8616324678301 290.2265267855579 432.2288214010533 Q 290.2265267855579 431.59601033427657 290.2265267855579 430.3303882007231 Q 290.2265267855579 429.06476606716967 290.8591269100651 426.5335218000627 Q 291.49172703457225 424.00227753295576 291.49172703457225 422.7366553994023 Q 291.49172703457225 421.47103326584886 293.3895274080936 418.30697793196515 Q 295.287327781615 415.14292259808144 295.91992790612215 413.24448939775124 Q 296.55252803062933 411.34605619742103 296.55252803062933 410.7132451306443 Q 296.55252803062933 410.08043406386753 297.18512815513645 408.8148119303141 Q 297.8177282796436 407.54918979676063 297.8177282796436 406.9163787299839 Q 297.8177282796436 406.2835676632071 298.4503284041508 404.3851344628769 Q 299.08292852865804 402.4867012625467 299.08292852865804 400.5882680622165 Q 299.08292852865804 398.6898348618863 300.3481287776724 396.15859059477935 Q 301.61332902668676 393.6273463276724 302.2459291511939 391.09610206056544 Q 302.878529275701 388.5648577934585 304.14372952471535 386.6664245931282 Q 305.4089297737297 384.76799139279797 307.3067301472512 383.5023692592445 Q 309.20453052077266 382.23674712569107 309.20453052077266 381.6039360589143 Q 309.20453052077266 380.97112499213756 310.4697307697869 378.4398807250306 Q 311.73493101880115 375.90863645792365 312.3675311433084 374.6430143243702 Q 313.0001312678156 373.37739219081675 314.26533151682986 372.11177005726324 Q 315.5305317658441 370.84614792370974 316.16313189035134 368.94771472337953 Q 316.7957320148586 367.04928152304933 318.0609322638728 365.7836593894959 Q 319.32613251288706 364.51803725594243 321.22393288640853 362.61960405561217 Q 323.12173325993 360.7211708552819 324.38693350894437 359.45554872172846 Q 325.6521337579587 358.189926588175 326.28473388246596 357.55711552139826 Q 326.9173340069732 356.9243044546215 329.4477345050017 353.76024912073785 Q 331.97813500303016 350.5961937868542 332.6107351275374 349.96338272007745 Q 333.24333525204463 349.3305716533007 333.87593537655175 347.4321384529705 Q 334.5085355010589 345.5337052526403 335.141135625566 344.90089418586354 Q 335.7737357500731 344.2680831190868 337.6715361235947 341.7368388519798 Q 339.5693364971163 339.20559458487287 342.0997369951449 336.6743503177659 Q 344.6301374931735 334.14310605065896 345.2627376176807 333.51029498388226 Q 345.89533774218796 332.87748391710556 346.5279378666951 331.61186178355206 Q 347.1605379912022 330.34623964999855 349.05833836472357 327.1821843161149 Q 350.95613873824493 324.01812898223125 351.58873886275217 323.3853179154545 Q 352.2213389872594 322.75250684867774 352.8539391117665 322.119695781901 Q 353.48653923627364 321.48688471512423 354.751739485288 320.2212625815708 Q 356.01693973430235 318.95564044801733 357.2821399833167 315.7915851141336 Q 358.54734023233107 312.6275297802499 359.1799403568382 311.3619076466964 Q 359.8125404813453 310.0962855131429 360.44514060585243 309.4634744463662 Q 361.07774073035955 308.8306633795895 361.7103408548668 305.6666080457058 L 362.343940979374 302.5015527118221" stroke-linecap="round" />
</g>
<g transform="matrix(1 0 0 1 415.55 310.7)" id="3moz0EQwQqbdf9bZncu_T"  >
<path style="stroke: rgb(0,0,0); stroke-width: 1; stroke-dasharray: none; stroke-linecap: round; stroke-dashoffset: 0; stroke-linejoin: round; stroke-miterlimit: 10; fill: none; fill-rule: nonzero; opacity: 1;" vector-effect="non-scaling-stroke"  transform=" translate(-415.55, -310.7)" d="M 263.81646367149847 345.63680271941485 Q 263.81746367149844 345.63580271941487 264.41957704301734 345.63580271941487 Q 265.02169041453624 345.63580271941487 267.43014390061165 345.0334885715189 Q 269.83859738668707 344.4311744236229 271.64493750124365 342.02191783203926 Q 273.4512776158002 339.6126612404556 274.0533909873191 339.6126612404556 Q 274.655504358838 339.6126612404556 276.4618444733946 338.4080329446637 Q 278.26818458795117 337.2034046488718 278.87029795947 335.9987763530799 Q 279.47241133098885 334.794148057288 280.67663807402664 334.19183390939213 Q 281.88086481706443 333.58951976149626 282.4829781885833 332.9872056136003 Q 283.0850915601021 332.3848914657043 284.2893183031398 331.1802631699125 Q 285.4935450461775 329.9756348741207 288.5041119037718 328.1686924304329 Q 291.5146787613661 326.36174998674505 293.9231322474416 325.1571216909532 Q 296.33158573351704 323.95249339516135 297.5358124765548 323.3501792472654 Q 298.7400392195925 322.7478650993694 299.3421525911114 322.1455509514735 Q 299.9442659626303 321.54323680357766 301.7506060771868 320.33860850778575 Q 303.55694619174324 319.13398021199384 304.15905956326213 318.5316660640979 Q 304.76117293478103 317.929351916202 305.3632863062999 317.32703776830607 Q 305.9653996778188 316.72472362041015 309.57807990693203 315.5200953246183 Q 313.19076013604524 314.31546702882645 316.8034403651584 312.5085245851386 Q 320.41612059427155 310.7015821414508 321.0182339657904 310.7015821414508 Q 321.6203473373092 310.7015821414508 322.22246070882807 310.09926799355486 Q 322.8245740803469 309.49695384565894 325.8351409379412 307.08769725407524 Q 328.84570779553553 304.67844066249154 331.25416128161106 304.07612651459556 Q 333.6626147676866 303.4738123666996 336.67318162528085 302.2691840709077 Q 339.6837484828751 301.0645557751159 340.28586185439394 300.46224162721995 Q 340.8879752259128 299.859927479324 341.4900885974316 299.859927479324 Q 342.09220196895046 299.859927479324 345.10276882654483 299.859927479324 Q 348.1133356841392 299.859927479324 348.7154490556581 299.859927479324 Q 349.317562427177 299.859927479324 349.91967579869583 299.859927479324 Q 350.5217891702147 299.859927479324 352.9302426562901 299.859927479324 Q 355.3386961423655 299.859927479324 357.14503625692214 299.859927479324 Q 358.9513763714788 299.859927479324 360.15560311451645 299.859927479324 Q 361.35982985755413 299.859927479324 361.96194322907303 299.859927479324 Q 362.5640566005919 299.859927479324 363.16616997211077 299.859927479324 Q 363.7682833436296 299.859927479324 365.5746234581862 299.859927479324 Q 367.38096357274276 299.859927479324 369.1873036872994 299.859927479324 Q 370.993643801856 299.859927479324 371.5957571733749 299.2576133314281 Q 372.1978705448938 298.6552991835322 373.40209728793144 298.6552991835322 Q 374.60632403096906 298.6552991835322 376.41266414552564 298.05298503563625 Q 378.2190042600822 297.45067088774033 378.8211176316011 296.2460425919485 Q 379.42323100312 295.04141429615663 380.02534437463885 295.04141429615663 Q 380.6274577461577 295.04141429615663 382.4337978607143 295.04141429615663 Q 384.24013797527095 295.04141429615663 385.4443647183087 295.04141429615663 Q 386.6485914613464 295.04141429615663 387.85281820438416 294.43910014826065 Q 389.0570449474219 293.83678600036467 389.65915831894074 293.83678600036467 Q 390.2612716904596 293.83678600036467 393.2718385480539 293.2344718524688 Q 396.2824054056482 292.63215770457293 398.0887455202048 292.63215770457293 Q 399.89508563476136 292.63215770457293 400.4971990062802 292.02984355667695 Q 401.09931237779904 291.42752940878097 404.10987923539335 291.42752940878097 Q 407.12044609298766 291.42752940878097 407.7225594645066 291.42752940878097 Q 408.32467283602557 291.42752940878097 408.92678620754435 291.42752940878097 Q 409.52889957906314 291.42752940878097 410.131012950582 290.82521526088505 Q 410.7331263221008 290.2229011129891 413.74369317969513 289.6205869650932 Q 416.75426003728944 289.01827281719727 421.5711670094404 288.41595866930135 Q 426.38807398159133 287.8136445214054 431.80709432526106 285.4043879298217 Q 437.2261146689308 282.995131338238 440.2366815265251 282.39281719034204 Q 443.2472483841194 281.79050304244606 443.8493617556383 281.18818889455014 Q 444.4514751271572 280.5858747466542 446.8599286132326 279.9835605987583 Q 449.26838209930804 279.38124645086236 453.4831756999401 278.77893230296644 Q 457.69796930057214 278.1766181550705 461.91276290120413 278.1766181550705 Q 466.1275565018361 278.1766181550705 467.9338966163927 278.1766181550705 Q 469.7402367309493 278.1766181550705 470.94446347398707 278.1766181550705 Q 472.14869021702486 278.1766181550705 473.95503033158144 276.97198985927866 Q 475.761370446138 275.7673615634868 481.78250416132664 275.7673615634868 Q 487.80363787651527 275.7673615634868 495.63111170626047 275.7673615634868 Q 503.45858553600567 275.7673615634868 513.0923994803074 275.7673615634868 Q 522.7262134246093 275.7673615634868 527.5431203967603 275.7673615634868 Q 532.3600273689111 275.7673615634868 534.7684808549866 275.7673615634868 Q 537.176934341062 275.7673615634868 539.5853878271373 276.36967571138274 Q 541.9938413132128 276.97198985927866 546.2086349138449 279.38124645086236 Q 550.423428514477 281.79050304244606 551.0255418859958 282.39281719034204 Q 551.6276552575148 282.995131338238 554.0361087435901 283.5974454861339 Q 556.4445622296655 284.19975963402976 557.0466756011843 285.40438792982167 Q 557.6487889727032 286.6090162256136 558.2509023442221 287.2113303735095 Q 558.8530157157411 287.8136445214054 558.8530157157411 288.41595866930135 Q 558.8530157157411 289.01827281719727 560.6593558302977 289.6205869650932 Q 562.4656959448542 290.2229011129891 562.4656959448542 291.427529408781 Q 562.4656959448542 292.63215770457293 564.8741494309297 293.2344718524688 L 567.283602917005 293.83778600036464" stroke-linecap="round" />
</g>
</svg>