<?xml version="1.0" encoding="UTF-8" standalone="no"?>
<svg
   xmlns:dc="http://purl.org/dc/elements/1.1/"
   xmlns:cc="http://creativecommons.org/ns#"
   xmlns:rdf="http://www.w3.org/1999/02/22-rdf-syntax-ns#"
   xmlns:svg="http://www.w3.org/2000/svg"
   xmlns="http://www.w3.org/2000/svg"
   xmlns:sodipodi="http://sodipodi.sourceforge.net/DTD/sodipodi-0.dtd"
   xmlns:inkscape="http://www.inkscape.org/namespaces/inkscape"
   version="1.1"
   width="567.7619694171777"
   height="523.2308874112624"
   viewBox="-201.23180041659373 27.66585769777646 567.7619694171777 523.2308874112624"
   xml:space="preserve"
   id="svg51"
   sodipodi:docname="laptop.svg"
   inkscape:version="1.0.2 (e86c870879, 2021-01-15)"><metadata
   id="metadata55"><rdf:RDF><cc:Work
       rdf:about=""><dc:format>image/svg+xml</dc:format><dc:type
         rdf:resource="http://purl.org/dc/dcmitype/StillImage" /></cc:Work></rdf:RDF></metadata><sodipodi:namedview
   pagecolor="#ffffff"
   bordercolor="#666666"
   borderopacity="1"
   objecttolerance="10"
   gridtolerance="10"
   guidetolerance="10"
   inkscape:pageopacity="0"
   inkscape:pageshadow="2"
   inkscape:window-width="1366"
   inkscape:window-height="714"
   id="namedview53"
   showgrid="false"
   inkscape:zoom="1.4865664"
   inkscape:cx="518.7077"
   inkscape:cy="171.23651"
   inkscape:window-x="0"
   inkscape:window-y="24"
   inkscape:window-maximized="1"
   inkscape:current-layer="svg51" />
<desc
   id="desc2">Created with Fabric.js 4.6.0</desc>
<defs
   id="defs4">
<clipPath
   id="id1"><path
     d="M 112.5 121 L 262.5 121 L 262.5 254 L 112.5 254 Z M 112.5 121 "
     clip-rule="nonzero"
     id="path219" /></clipPath></defs>



<g
   transform="matrix(0.51 0 0 0.51 110.16 251.23)"
   id="TnU2xKDW-mP8DCgQ1q-om"
   style="fill:#808080">
<path
   style="stroke:none;stroke-width:1;stroke-dasharray:none;stroke-linecap:butt;stroke-dashoffset:0;stroke-linejoin:miter;stroke-miterlimit:4;fill:#808080;fill-rule:nonzero;opacity:1"
   vector-effect="non-scaling-stroke"
   transform=" translate(-771.15, -375.58)"
   d="M 601.16721 116.56176 L 963.94182 298.9512 C 970.1088252941166 302.05174344134844 973.8168355566415 308.5464868982244 973.3519 315.43336999999997 L 952.27481 627.63773 C 952.0827883456333 630.4819074200948 950.4777731295877 633.0404331681663 948.0006370491016 634.4511118528695 C 945.5235009686154 635.8617905375728 942.504145257499 635.9367501068798 939.96006 634.6507300000001 L 568.91284 445.287 L 587.962 124.17251 C 588.143769229799 121.1084309924943 589.8541602231401 118.34113561919567 592.5135530215923 116.80840923765227 C 595.1729458200446 115.27568285610889 598.4248330078058 115.18299655044716 601.16721 116.56176 Z"
   stroke-linecap="round"
   id="path15" />
</g>
<g
   transform="matrix(0.51 0 0 0.51 110.16 251.23)"
   id="7H-guYMvT6AipZKDTlZ-G"
   style="fill:#000000">
<path
   style="stroke:none;stroke-width:1;stroke-dasharray:none;stroke-linecap:butt;stroke-dashoffset:0;stroke-linejoin:miter;stroke-miterlimit:4;fill:#000000;fill-rule:nonzero;opacity:1"
   vector-effect="non-scaling-stroke"
   transform=" translate(-771.15, -375.58)"
   d="M 605.34247 122.92382 L 959.20641 300.83332 C 965.2219372622063 303.8577045109817 968.8388710459695 310.1929173469131 968.38536 316.91064 L 947.826 621.44648 C 947.6386991519057 624.2208026202825 946.0731079213283 626.7164914893259 943.6568139190346 628.092525974209 C 941.2405199167407 629.468560459092 938.2953217841133 629.5416822198484 935.81372 628.28725 L 573.88034 443.57476 L 592.4616100000001 130.34764 C 592.6389105172931 127.35881962118121 594.3072891892325 124.65949181546719 596.9013622394755 123.1644106336319 C 599.4954352897184 121.66932945179661 602.6674510679829 121.57891983878918 605.34247 122.92382 Z"
   stroke-linecap="round"
   id="path18" />
</g>
<g
   transform="matrix(0.51 0 0 0.51 110.16 251.23)"
   id="cMLWK2rhFZTtqpHlD0Xc4"
   style="fill:#000000">
<path
   style="stroke:none;stroke-width:1;stroke-dasharray:none;stroke-linecap:butt;stroke-dashoffset:0;stroke-linejoin:miter;stroke-miterlimit:4;fill:#000000;fill-rule:nonzero;opacity:1"
   vector-effect="non-scaling-stroke"
   transform=" translate(-771.15, -375.58)"
   d="M 620.85055 146.55434 L 941.61776 307.824 C 947.0706576345652 310.5655167622658 950.349298964269 316.3082025884237 949.9381999999999 322.39762 L 931.30173 598.45039 C 931.1319653414236 600.9652399064614 929.7128105568761 603.2275231845481 927.5225093453084 604.4748686434871 C 925.3322081337407 605.7222141024262 922.6624643184795 605.7885005542 920.41296 604.65139 L 592.33107 437.21494 L 609.17444 153.28381000000002 C 609.3351599766959 150.57453579785474 610.8474950750995 148.1276785089148 613.1989428835262 146.7724328420469 C 615.5503906919529 145.41718717517895 618.4257256926571 145.33523184571746 620.85055 146.55434 Z"
   stroke-linecap="round"
   id="path21" />
</g>
<g
   transform="matrix(0.51 0 0 0.51 30.42 372.87)"
   id="XydcgQBwGEhqCp5ZxPW3J"
   style="fill:#808080">
<path
   style="stroke:none;stroke-width:1;stroke-dasharray:none;stroke-linecap:butt;stroke-dashoffset:0;stroke-linejoin:miter;stroke-miterlimit:4;fill:#808080;fill-rule:nonzero;opacity:1"
   vector-effect="non-scaling-stroke"
   transform=" translate(-615.18, -613.51)"
   d="M 289.86708 598.9106 L 653.105 781.84248 C 659.9602797887525 785.289509824965 668.0445737656247 785.2789674363362 674.89084 781.81407 L 943.60452 645.40645 C 946.75529 642.2555799999999 946.3152299999999 637.58616 945.30759 634.0804499999999 C 944.818528443601 632.3832438289467 944.1525899524124 630.7420875099558 943.32073 629.1839799999999 L 906.70306 609.9242499999999 L 598.83151 456.31491 L 580.4374399999999 446.55021 C 570.5528708641051 441.3156078360022 558.7281787967191 441.2678505046553 548.8016499999999 446.42244 L 289.75342 580.985 C 286.3928413065108 582.7227742073984 284.29174767748077 586.1994162473699 284.31573577695434 589.9826388052055 C 284.3397238764279 593.7658613630412 286.4847351535007 597.215580327432 289.86708 598.9106 Z"
   stroke-linecap="round"
   id="path24" />
</g>
<g
   transform="matrix(0.51 0 0 0.51 30.41 410.13)"
   id="vpSCThi43HmE4RWCpvfI5">
<path
   style="stroke: none; stroke-width: 1; stroke-dasharray: none; stroke-linecap: butt; stroke-dashoffset: 0; stroke-linejoin: miter; stroke-miterlimit: 4; fill: rgb(0,0,0); fill-rule: nonzero; opacity: 0.1;"
   vector-effect="non-scaling-stroke"
   transform=" translate(-615.18, -686.36)"
   d="M 289.86708 598.9106 L 653.105 781.84248 C 659.9602797887525 785.289509824965 668.0445737656247 785.2789674363362 674.89084 781.81407 L 943.60452 645.40645 C 946.75529 642.2555799999999 946.3152299999999 637.58616 945.30759 634.0804499999999 L 677.39709 773.334 C 670.7661313103482 776.7806079547088 662.8867430740663 776.8481199010072 656.1977 773.51564 L 284.4453 588.30848 C 283.727825349753 592.6497485340577 285.92739576444745 596.9509391919302 289.86708 598.9106 Z"
   stroke-linecap="round"
   id="path27" />
</g>
<g
   transform="matrix(0.51 0 0 0.51 -11.11 390)"
   id="BfnUU3oGeXLXWqEonHCuQ">
<path
   style="stroke: none; stroke-width: 1; stroke-dasharray: none; stroke-linecap: butt; stroke-dashoffset: 0; stroke-linejoin: miter; stroke-miterlimit: 4; fill: rgb(0,0,0); fill-rule: nonzero; opacity: 0.1;"
   vector-effect="non-scaling-stroke"
   transform=" translate(-533.97, -647)"
   d="M 634.63782 653.72083 L 517.00265 594.27572 C 512.1964166336512 591.8469717384031 506.50835976889806 591.9117105120869 501.75865 594.44922 L 433.51788999999997 630.90661 C 431.910632577579 631.7652840527716 430.9154536502963 633.4476892023155 430.9369613591009 635.2698129547792 C 430.9584690679055 637.0919367072429 431.99308223109864 638.7503829038579 433.62015999999994 639.57088 L 553.56116 700.05396 C 557.6056585640193 702.0934903333425 562.4005892070452 701.9831938066752 566.34703 699.7598499999999 L 634.86 661.161 C 636.2212398565558 660.3941245928418 637.0447423969962 658.935445808549 636.9981066617108 657.3737489924627 C 636.9514709264255 655.8120521763763 636.0423946408995 654.4051120436941 634.63782 653.72083 Z"
   stroke-linecap="round"
   id="path30" />
</g>
<g
   transform="matrix(0.51 0 0 0.51 55.34 358.05)"
   id="cXWp631eEE193dnbFVD_n"
   style="fill:#000000">
<path
   style="stroke:none;stroke-width:1;stroke-dasharray:none;stroke-linecap:butt;stroke-dashoffset:0;stroke-linejoin:miter;stroke-miterlimit:4;fill:#000000;fill-rule:nonzero;opacity:0.1"
   vector-effect="non-scaling-stroke"
   transform=" translate(-663.93, -584.52)"
   d="M 911.68665 643.779 L 785.10055 711.02786 C 782.1446786588406 712.5981711031302 778.609979037167 712.633758806787 775.62309 711.12328 L 417.96294000000006 530.25328 C 415.907548415996 529.2138441825056 414.61560350228496 527.1025789633458 414.6255075433477 524.7993283707582 C 414.6354115844104 522.4960777781705 415.94546538387374 520.3960012252302 418.0097200000001 519.37428 L 541.62422 458.19135 C 545.4013606308297 456.3218535426342 549.8378159772813 456.3376475848767 553.6015500000001 458.23399 L 911.631 638.62577 C 912.5994520172195 639.1137439921895 913.2149261259821 640.1010737484696 913.2266364062968 641.1854541227133 C 913.2383466866117 642.2698344969568 912.6443380783963 643.2702255202869 911.68665 643.779 Z"
   stroke-linecap="round"
   id="path33" />
</g>




<g
   transform="matrix(0.51 0 0 0.51 -104.05 257.63)"
   id="s_SyN87o8HgwgEUNA3w_x">
<path
   style="stroke: rgb(0,0,0); stroke-width: 1; stroke-dasharray: none; stroke-linecap: round; stroke-dashoffset: 0; stroke-linejoin: round; stroke-miterlimit: 10; fill: none; fill-rule: nonzero; opacity: 1;"
   vector-effect="non-scaling-stroke"
   transform=" translate(-1.18, -188.09)"
   d="M 1.1782452830188723 188.0896226415094 L 1.180245283018872 188.0896226415094"
   stroke-linecap="round"
   id="path48" />
</g>
<g
   id="g241"
   transform="matrix(0.5206376,0.27216246,-0.0398056,0.42061401,15.853565,126.53841)"
   inkscape:transform-center-x="1.8417671"
   inkscape:transform-center-y="15.20052"><g
     clip-path="url(#id1)"
     id="g226"
     transform="translate(3.8095986,-12.430108)"><path
       fill="#ffc107"
       d="M 253.79687,253.98437 H 121.20313 c -2.97266,0 -5.70704,-1.58984 -7.1875,-4.16406 -1.47266,-2.57812 -1.46485,-5.75 0.0312,-8.3164 l 66.29687,-116.1836 c 1.48437,-2.55078 4.21094,-4.11718 7.15625,-4.11718 2.94531,0 5.67187,1.5664 7.16016,4.11718 l 66.29687,116.1836 c 1.49609,2.5664 1.50391,5.73828 0.0312,8.3164 -1.47656,2.57422 -4.22266,4.16406 -7.19141,4.16406 z m 0,0"
       fill-opacity="1"
       fill-rule="nonzero"
       id="path224" /></g><path
     fill="#000000"
     d="m 183.02054,217.24567 c 0,-1.11328 0.19531,-2.13672 0.59375,-3.09375 0.39062,-0.94531 0.94922,-1.76562 1.67187,-2.45703 0.70703,-0.69531 1.58203,-1.23828 2.58594,-1.62891 1.00781,-0.38281 2.14453,-0.58593 3.41406,-0.58593 1.26563,0 2.41016,0.20312 3.42969,0.58593 1.03516,0.39063 1.91016,0.9336 2.61719,1.62891 0.72656,0.69141 1.28515,1.51172 1.67187,2.45703 0.39844,0.95703 0.59375,1.98047 0.59375,3.09375 0,1.12109 -0.19531,2.14453 -0.59375,3.07422 -0.39062,0.93359 -0.94922,1.73828 -1.67187,2.4375 -0.70703,0.69141 -1.58203,1.23047 -2.61719,1.62891 -1.01953,0.3789 -2.16406,0.57031 -3.42969,0.57031 -1.27344,0 -2.40625,-0.19141 -3.41406,-0.57422 -1.00391,-0.39844 -1.87891,-0.94141 -2.58594,-1.62891 -0.72656,-0.69922 -1.28515,-1.5039 -1.67187,-2.4375 -0.39844,-0.92968 -0.59375,-1.95312 -0.59375,-3.07031 m 14.42187,-17.18359 H 185.1221 l -1.74219,-49.79688 h 15.80078 z m 0,0"
     fill-opacity="1"
     fill-rule="nonzero"
     id="path228" /></g></svg>
