<?xml version="1.0" encoding="UTF-8" standalone="no" ?>
<!DOCTYPE svg PUBLIC "-//W3C//DTD SVG 1.1//EN" "http://www.w3.org/Graphics/SVG/1.1/DTD/svg11.dtd">
<svg xmlns="http://www.w3.org/2000/svg" xmlns:xlink="http://www.w3.org/1999/xlink" version="1.1" width="140.99999999999997" height="141" viewBox="161.28999999999996 34.78886258973324 140.99999999999997 141" xml:space="preserve">
<desc>Created with Fabric.js 4.6.0</desc>
<defs>
</defs>
<g transform="matrix(1 0 0 1 231.79 105.29)" id="ddcuhFJLy2-BMwSk8dezs"  >
<path style="stroke: none; stroke-width: 1; stroke-dasharray: none; stroke-linecap: butt; stroke-dashoffset: 0; stroke-linejoin: miter; stroke-miterlimit: 4; fill: rgb(0,0,0); fill-rule: nonzero; opacity: 1;" vector-effect="non-scaling-stroke"  transform=" translate(-581.79, -303.42)" d="M 581.79 233.42 C 543.9725592991574 233.43462422961267 512.9976855758608 263.4709051234796 511.81978 301.2700000000001 C 511.79978 301.97999999999996 511.78999999999996 302.7 511.78999999999996 303.41999999999996 C 511.78999999999996 342.0799324881555 543.1300675118445 373.41999999999996 581.79 373.41999999999996 C 620.4499324881555 373.41999999999996 651.79 342.0799324881555 651.79 303.41999999999996 C 651.79 264.7600675118444 620.4499324881555 233.41999999999996 581.79 233.41999999999996 Z M 581.79 371.41999999999996 C 544.2508588027886 371.38086597906704 513.8291340209329 340.95914119721135 513.79 303.41999999999996 Q 513.79 302.025 513.85006 300.65999999999997 C 515.360892911292 263.4953256028166 546.4524866941296 234.44123077906045 583.63420423823 235.4489607057906 C 620.8159217823306 236.45669063252075 650.288130967617 267.1522361680462 649.783688602734 304.34418660137266 C 649.2792462378509 341.53613703469915 618.9853711905903 371.42106240863575 581.79 371.42 Z" stroke-linecap="round" />
</g>
<g transform="matrix(1 0 0 1 231.79 103.42)" id="9Kbblt94e7FfVBwXGGurB"  >
<path style="stroke: none; stroke-width: 1; stroke-dasharray: none; stroke-linecap: butt; stroke-dashoffset: 0; stroke-linejoin: miter; stroke-miterlimit: 4; fill: rgb(230,230,230); fill-rule: nonzero; opacity: 1;" vector-effect="non-scaling-stroke"  transform=" translate(-581.79, -303.42)" d="M 640.79 303.42 C 640.79 336.00480024001683 614.3748002400167 362.42 581.79 362.42 C 549.2051997599831 362.42 522.79 336.00480024001683 522.79 303.42 C 522.79 301.55 522.87984 299.71000000000004 523.04976 297.89000000000004 C 526.0031718727369 266.52024423018736 553.0842662687852 243.00701324586245 584.5580487384422 244.4852675543062 C 616.0318312080991 245.96352186274996 640.7898404361545 271.9115214787788 640.79 303.42 Z" stroke-linecap="round" />
</g>
<g transform="matrix(1 0 0 1 231.79 103.42)" id="Q5YebojwjYpJRskARpOoE"  >
<path style="stroke: none; stroke-width: 1; stroke-dasharray: none; stroke-linecap: butt; stroke-dashoffset: 0; stroke-linejoin: miter; stroke-miterlimit: 4; fill: rgb(105,167,206); fill-rule: nonzero; opacity: 1;" vector-effect="non-scaling-stroke"  transform=" translate(-581.79, -303.42)" d="M 599.35986 307.34 C 597.9297132307548 305.45970522163503 596.0484642703599 303.97045019605605 593.89014 303.01 C 591.2280148688676 301.88804989454803 588.4788307803603 300.98505739082316 585.6699199999999 300.31 L 585.6699199999999 284.25 C 589.9875998361827 284.9009823337772 594.0369425743652 286.7472704066427 597.3598599999999 289.58 L 600.6201199999999 282.63 C 598.7450476062888 280.9595965475488 596.5925752045733 279.62960424543616 594.2597699999999 278.7 C 591.6742353338657 277.65302931705975 588.9601940589407 276.95684793045126 586.1899399999999 276.63 L 586.1899399999999 268.49 L 578.6401399999999 268.49 L 578.6401399999999 276.71000000000004 C 575.7247413617517 277.0374728195221 572.9124334429684 277.9817265086166 570.3901399999999 279.48 C 568.1116263168607 280.8285824409071 566.1935306896635 282.7088194277524 564.7997999999999 284.96000000000004 C 563.469775860114 287.15693032205945 562.7805793944941 289.6820050727149 562.8100599999999 292.25000000000006 C 562.680138252849 295.0328711609747 563.4863827944832 297.7790316084624 565.1000599999999 300.05000000000007 C 566.585344840305 302.0161893146184 568.5468851757915 303.5717382586679 570.7997599999999 304.57000000000005 C 573.5043622901743 305.7250244961165 576.3009152450256 306.6515936492317 579.1601199999999 307.34000000000003 L 579.1601199999999 322.73 C 574.0650341168496 322.3456781721074 569.2102242762527 320.40865716759316 565.25 317.18 L 561.99023 324.14 C 564.2045301365185 325.9706619467719 566.7226297697722 327.3989484879893 569.43018 328.36 C 572.3969384924505 329.42169684352035 575.4963229911752 330.0678226022122 578.64018 330.28000000000003 L 578.64018 338.35 L 586.18998 338.35 L 586.18998 330.13 C 590.3835497968297 329.67176152817353 594.3161808202814 327.8685747787943 597.39998 324.99 C 600.1456362400677 322.35683145693883 601.6618719587683 318.69335745369585 601.58016 314.89 C 601.7054969074409 312.1958165887813 600.9237187111264 309.53742565864843 599.35986 307.34 Z M 579.16016 298.60999999999996 C 577.3210246247356 298.0522860855834 575.6111204715303 297.1344959797335 574.1298800000001 295.90999999999997 C 572.9416564012415 294.8527309617492 572.2887523591543 293.319317339883 572.3501000000001 291.72999999999996 C 572.2955494093894 289.9488963471712 572.9500617649182 288.2189425989468 574.1699200000002 286.91999999999996 C 575.5224045228132 285.5572112248507 577.2672829903437 284.651596418568 579.1601600000001 284.33 Z M 590.41016 319.89 C 589.1343409184086 321.1983447761012 587.4731990369901 322.0639170777365 585.66992 322.36 L 585.66992 309.12 C 587.3935817102856 309.58244876588043 589.0059593479778 310.3885967671062 590.41016 311.49 C 591.4883231010936 312.410948440113 592.0882607423663 313.77287034400103 592.04004 315.19 C 592.1094785467711 316.9062350321259 591.5272327492538 318.58522688939854 590.41016 319.89 Z" stroke-linecap="round" />
</g>
</svg>