<svg xmlns="http://www.w3.org/2000/svg" xmlns:xlink="http://www.w3.org/1999/xlink" width="40" zoomAndPan="magnify" viewBox="0 0 30 30.000001" height="40" preserveAspectRatio="xMidYMid meet" version="1.0"><defs><clipPath id="id1"><path d="M 0.484375 0 L 29.515625 0 L 29.515625 29.03125 L 0.484375 29.03125 Z M 0.484375 0 " clip-rule="nonzero"/></clipPath><clipPath id="id2"><path d="M 7 5.804688 L 23.710938 5.804688 L 23.710938 22 L 7 22 Z M 7 5.804688 " clip-rule="nonzero"/></clipPath></defs><g clip-path="url(#id1)"><path fill="rgb(0%, 0%, 0%)" d="M 27.628906 29.03125 L 2.371094 29.03125 C 1.332031 29.03125 0.484375 28.183594 0.484375 27.144531 L 0.484375 1.886719 C 0.484375 0.847656 1.332031 0 2.371094 0 L 27.628906 0 C 28.667969 0 29.515625 0.847656 29.515625 1.886719 L 29.515625 27.144531 C 29.515625 28.183594 28.667969 29.03125 27.628906 29.03125 " fill-opacity="1" fill-rule="nonzero"/></g><g clip-path="url(#id2)"><path fill="rgb(100%, 100%, 100%)" d="M 19.617188 16.25 C 19.332031 16.085938 18.984375 16.089844 18.703125 16.253906 L 17.277344 17.105469 C 16.960938 17.292969 16.5625 17.273438 16.269531 17.042969 C 15.761719 16.648438 14.949219 15.984375 14.238281 15.277344 C 13.53125 14.566406 12.867188 13.753906 12.472656 13.246094 C 12.242188 12.953125 12.21875 12.554688 12.410156 12.234375 L 13.257812 10.8125 C 13.425781 10.527344 13.429688 10.179688 13.261719 9.894531 L 11.171875 6.324219 C 10.96875 5.976562 10.566406 5.808594 10.175781 5.902344 C 9.796875 5.996094 9.308594 6.21875 8.792969 6.734375 C 7.179688 8.347656 6.324219 11.066406 12.386719 17.128906 C 18.449219 23.191406 21.167969 22.335938 22.78125 20.722656 C 23.296875 20.207031 23.523438 19.714844 23.613281 19.335938 C 23.707031 18.949219 23.542969 18.546875 23.195312 18.347656 C 22.335938 17.84375 20.476562 16.753906 19.617188 16.25 Z M 19.617188 16.25 " fill-opacity="1" fill-rule="nonzero"/></g></svg>