<svg xmlns="http://www.w3.org/2000/svg" width="224.88" viewBox="0 0 224.88 450" height="450" version="1.0"><path fill="#FF4C4C" d="M 141.429688 254.277344 L 145.242188 47.660156 L 145.253906 47.089844 L 83.796875 45.957031 L 83.785156 46.523438 L 80.042969 253.085938 C 79.835938 264.398438 93.441406 273.515625 110.417969 273.828125 C 127.285156 274.175781 141.222656 265.570312 141.429688 254.277344 M 114.167969 66.90625 L 114.308594 66.910156 L 114.167969 66.90625"/><path fill="#FF4C4C" d="M 126.453125 65.503906 L 127.832031 65.101562 C 128.292969 64.96875 128.71875 64.835938 129.144531 64.664062 L 129.179688 64.667969 C 129.605469 64.53125 130.03125 64.363281 130.457031 64.191406 L 130.492188 64.195312 C 130.917969 64.023438 131.308594 63.855469 131.734375 63.683594 L 131.769531 63.6875 C 132.160156 63.515625 132.585938 63.347656 132.980469 63.140625 L 133.015625 63.140625 C 133.40625 62.972656 133.796875 62.765625 134.152344 62.558594 L 134.1875 62.558594 C 134.578125 62.355469 134.933594 62.148438 135.289062 61.941406 C 135.648438 61.734375 136.003906 61.53125 136.359375 61.289062 C 141.671875 57.875 145.035156 53.1875 145.238281 47.90625 L 145.242188 47.660156 C 145.445312 36.707031 131.839844 27.589844 114.863281 27.277344 C 97.886719 26.960938 83.953125 35.570312 83.75 46.523438 L 83.746094 46.773438 C 83.757812 57.621094 97.261719 66.59375 114.097656 66.90625 C 118.496094 67.023438 122.664062 66.496094 126.453125 65.503906"/><path fill="#FF4C4C" d="M 108.402344 282.839844 C 81.285156 282.839844 59.304688 304.824219 59.304688 331.941406 C 59.304688 359.054688 81.285156 381.039062 108.402344 381.039062 C 135.519531 381.039062 157.503906 359.054688 157.503906 331.941406 C 157.503906 304.824219 135.519531 282.839844 108.402344 282.839844"/><path fill="#FF4C4C" d="M 137.007812 252.738281 L 130.746094 46.179688 L 130.730469 45.613281 L 69.289062 47.476562 L 69.308594 48.042969 L 75.636719 254.542969 C 75.980469 265.855469 90.015625 274.296875 106.988281 273.78125 C 123.851562 273.304688 137.351562 264.027344 137.007812 252.738281 M 100.644531 66.921875 L 100.785156 66.917969 L 100.644531 66.921875"/><path fill="#FF4C4C" d="M 112.847656 64.921875 L 114.207031 64.453125 C 114.660156 64.296875 115.078125 64.144531 115.496094 63.953125 L 115.53125 63.953125 C 115.949219 63.796875 116.367188 63.605469 116.785156 63.417969 L 116.820312 63.417969 C 117.238281 63.226562 117.617188 63.039062 118.035156 62.847656 L 118.070312 62.847656 C 118.453125 62.65625 118.871094 62.46875 119.25 62.242188 L 119.285156 62.242188 C 119.667969 62.054688 120.050781 61.828125 120.394531 61.605469 L 120.429688 61.605469 C 120.808594 61.378906 121.15625 61.15625 121.5 60.933594 C 121.847656 60.710938 122.191406 60.488281 122.539062 60.226562 C 127.675781 56.5625 130.808594 51.710938 130.753906 46.429688 L 130.746094 46.179688 C 130.414062 35.230469 116.378906 26.789062 99.40625 27.304688 C 82.4375 27.820312 68.941406 37.09375 69.273438 48.046875 L 69.277344 48.292969 C 69.820312 59.128906 83.746094 67.433594 100.574219 66.921875 C 104.976562 66.824219 109.113281 66.097656 112.847656 64.921875"/></svg>